<svg width="14" height="15" viewBox="0 0 14 15" fill="none" xmlns="http://www.w3.org/2000/svg">
<path d="M12.7956 7.89917H7.34058C6.96408 7.89917 6.65918 8.21729 6.65918 8.60927V11.449L13.4769 11.4483V8.60929C13.4769 8.42095 13.4053 8.23993 13.2775 8.10683C13.1496 7.97374 12.9765 7.89917 12.7956 7.89917Z" fill="white"/>
<path d="M6.65918 12.8686C6.65918 13.0569 6.73077 13.2372 6.85862 13.3703C6.98647 13.5034 7.15968 13.578 7.34058 13.578H8.94945L8.77878 14.2881H8.70463C8.51607 14.2881 8.3633 14.4471 8.3633 14.6428C8.3633 14.8391 8.51607 14.9982 8.70463 14.9982H11.4321H11.4315C11.62 14.9982 11.7728 14.8391 11.7728 14.6428C11.7728 14.4472 11.62 14.2881 11.4315 14.2881H11.3567L11.186 13.578H12.7955C12.9764 13.578 13.1497 13.5035 13.2775 13.3703C13.4053 13.2372 13.4769 13.0569 13.4769 12.8686V12.1584H6.65919L6.65918 12.8686Z" fill="white"/>
<path d="M1.20431 7.18892V5.76939C1.20431 5.37741 1.50986 5.05929 1.88635 5.05929H10.7502C10.9311 5.05929 11.1043 5.13449 11.2322 5.2676C11.36 5.40071 11.4316 5.58105 11.4316 5.76939V7.18892H12.1136V5.76939C12.1117 5.36078 11.9398 4.97211 11.6432 4.70458C11.9398 4.43705 12.1117 4.04838 12.1136 3.63977V2.22024C12.1136 1.84357 11.9698 1.48219 11.7141 1.21599C11.4585 0.949787 11.1114 0.800049 10.7502 0.800049H1.88637C1.13338 0.800049 0.522949 1.43562 0.522949 2.22024V3.63977C0.524867 4.04838 0.696175 4.43705 0.993404 4.70458C0.696175 4.97211 0.524864 5.36078 0.522949 5.76939V7.18892C0.524867 7.5982 0.696175 7.9862 0.993404 8.25374C0.696175 8.52193 0.524864 8.90993 0.522949 9.31855V10.7387C0.522949 11.1147 0.666131 11.4761 0.922451 11.7423C1.17813 12.0085 1.52458 12.1583 1.88637 12.1583H5.97728V11.4482H1.88637C1.50987 11.4482 1.20433 11.1307 1.20433 10.7387V9.31853C1.20433 8.92655 1.50987 8.60909 1.88637 8.60909H5.97728C5.97855 8.35885 6.04439 8.11328 6.1684 7.89899H1.88637C1.50987 7.89899 1.20431 7.58091 1.20431 7.18892ZM1.20431 2.22024C1.20431 1.82825 1.50986 1.51014 1.88635 1.51014H10.7502C10.9311 1.51014 11.1043 1.58467 11.2322 1.71778C11.36 1.85089 11.4316 2.03191 11.4316 2.22024V3.63977C11.4316 3.82811 11.36 4.00846 11.2322 4.14156C11.1043 4.27465 10.9311 4.34987 10.7502 4.34987H1.88635C1.50986 4.34987 1.20431 4.03175 1.20431 3.63977V2.22024Z" fill="white"/>
<path d="M10.409 6.4796C10.409 7.18904 9.38623 7.18904 9.38623 6.4796C9.38623 5.7695 10.409 5.7695 10.409 6.4796Z" fill="white"/>
<path d="M8.70486 6.4796C8.70486 7.18904 7.68213 7.18904 7.68213 6.4796C7.68213 5.7695 8.70486 5.7695 8.70486 6.4796Z" fill="white"/>
<path d="M10.409 2.92978C10.409 3.63989 9.38623 3.63989 9.38623 2.92978C9.38623 2.22035 10.409 2.22035 10.409 2.92978Z" fill="white"/>
<path d="M8.70486 2.92978C8.70486 3.63989 7.68213 3.63989 7.68213 2.92978C7.68213 2.22035 8.70486 2.22035 8.70486 2.92978Z" fill="white"/>
<path d="M2.56838 3.28504H6.65929C6.84721 3.28504 6.99998 3.12598 6.99998 2.92966C6.99998 2.73401 6.84721 2.57495 6.65929 2.57495H2.56838C2.37982 2.57495 2.22705 2.73401 2.22705 2.92966C2.22705 3.12598 2.37982 3.28504 2.56838 3.28504Z" fill="white"/>
<path d="M6.31794 6.12427H2.56838C2.37982 6.12427 2.22705 6.28332 2.22705 6.47964C2.22705 6.6753 2.37982 6.83435 2.56838 6.83435H6.31794C6.5065 6.83435 6.65927 6.6753 6.65927 6.47964C6.65927 6.28333 6.5065 6.12427 6.31794 6.12427Z" fill="white"/>
<path d="M2.56838 9.67407C2.37982 9.67407 2.22705 9.83246 2.22705 10.0288C2.22705 10.2251 2.37982 10.3835 2.56838 10.3835H5.63656C5.82448 10.3835 5.97725 10.2251 5.97725 10.0288C5.97725 9.83246 5.82448 9.67407 5.63656 9.67407H2.56838Z" fill="white"/>
</svg>
