<svg width="16" height="16" viewBox="0 0 16 16" fill="none" xmlns="http://www.w3.org/2000/svg">
<path d="M0.0556641 7.98767C0.0583028 3.74149 3.33105 0.268678 7.46601 0.00133339L7.4891 0V7.98767C7.4891 8.08034 7.51417 8.16701 7.55837 8.24034L7.55705 8.23834L11.508 15.1573C10.4775 15.6887 9.26104 16 7.972 16C3.6002 16 0.0556641 12.4178 0.0556641 7.99967C0.0556641 7.99567 0.0556641 7.99167 0.0556641 7.98767ZM8.84148 8.48902H15.8883C15.7274 11.0671 14.3803 13.2966 12.3979 14.6433L12.3695 14.6613L8.84148 8.48902ZM8.47997 7.48698V0C12.4645 0.258677 15.6324 3.46014 15.8877 7.46298L15.889 7.48631L8.47997 7.48698Z" fill="#A3A8B8"/>
</svg>
