<svg width="16" height="16" viewBox="0 0 16 16" fill="none" xmlns="http://www.w3.org/2000/svg">
<path d="M4.25 12.5V11M8 12.5V10.25M11.75 12.5V8.75M0.875 8C0.875 4.6415 0.875 2.9615 1.91825 1.91825C2.9615 0.875 4.64075 0.875 8 0.875C11.3585 0.875 13.0385 0.875 14.0817 1.91825C15.125 2.9615 15.125 4.64075 15.125 8C15.125 11.3585 15.125 13.0385 14.0817 14.0817C13.0385 15.125 11.3593 15.125 8 15.125C4.6415 15.125 2.9615 15.125 1.91825 14.0817C0.875 13.0385 0.875 11.3593 0.875 8Z" stroke="#A3A8B8" stroke-linecap="round" stroke-linejoin="round"/>
<path d="M3.49414 7.61448C5.11039 7.66848 8.77564 7.42473 10.8606 4.11573M9.49414 3.71598L10.9011 3.48948C11.0721 3.46773 11.3241 3.60348 11.3864 3.76473L11.7576 4.99323" stroke="#A3A8B8" stroke-linecap="round" stroke-linejoin="round"/>
</svg>
